<?xml version="1.0" encoding="UTF-8"?>
<!DOCTYPE svg PUBLIC "-//W3C//DTD SVG 1.1//EN" "http://www.w3.org/Graphics/SVG/1.1/DTD/svg11.dtd">
<svg xmlns="http://www.w3.org/2000/svg" version="1.1" width="251px" height="45px" style="shape-rendering:geometricPrecision; text-rendering:geometricPrecision; image-rendering:optimizeQuality; fill-rule:evenodd; clip-rule:evenodd" xmlns:xlink="http://www.w3.org/1999/xlink">
<g><path style="opacity:0.779" fill="#fefffe" d="M 58.5,-0.5 C 62.1667,-0.5 65.8333,-0.5 69.5,-0.5C 74.4187,3.72175 74.752,8.38841 70.5,13.5C 72.6582,16.1485 73.9916,19.1485 74.5,22.5C 73.0222,22.762 71.6888,22.4287 70.5,21.5C 69.5328,19.3703 68.3662,17.3703 67,15.5C 65.8904,13.9632 64.3904,13.2965 62.5,13.5C 62.5,16.5 62.5,19.5 62.5,22.5C 61.1667,22.5 59.8333,22.5 58.5,22.5C 58.5,14.8333 58.5,7.16667 58.5,-0.5 Z M 62.5,2.5 C 67.9343,1.97959 69.9343,4.14626 68.5,9C 66.6547,10.128 64.6547,10.628 62.5,10.5C 62.5,7.83333 62.5,5.16667 62.5,2.5 Z"/></g>
<g><path style="opacity:0.787" fill="#fefffe" d="M 114.5,-0.5 C 116.5,-0.5 118.5,-0.5 120.5,-0.5C 121.828,0.507165 122.828,1.8405 123.5,3.5C 121.276,4.78009 119.276,4.44676 117.5,2.5C 116.119,2.99962 115.453,3.99962 115.5,5.5C 117.839,7.58409 120.339,9.58409 123,11.5C 125.166,19.6711 122,23.1711 113.5,22C 110.965,21.0718 109.965,19.2385 110.5,16.5C 112.929,16.585 114.929,17.585 116.5,19.5C 120.476,17.9224 121.143,15.589 118.5,12.5C 110.924,10.0174 109.591,5.68412 114.5,-0.5 Z"/></g>
<g><path style="opacity:0.781" fill="#fefffe" d="M 184.5,-0.5 C 185.833,-0.5 187.167,-0.5 188.5,-0.5C 188.5,1.83333 188.5,4.16667 188.5,6.5C 189.5,6.5 190.5,6.5 191.5,6.5C 191.5,7.5 191.5,8.5 191.5,9.5C 190.5,9.5 189.5,9.5 188.5,9.5C 188.335,12.5184 188.502,15.5184 189,18.5C 190.011,19.3366 191.178,19.67 192.5,19.5C 192.5,20.5 192.5,21.5 192.5,22.5C 189.305,23.0393 186.805,22.0393 185,19.5C 184.928,15.4695 184.094,11.6361 182.5,8C 184.146,5.40498 184.813,2.57164 184.5,-0.5 Z"/></g>
<g><path style="opacity:0.626" fill="#fefffe" d="M -0.5,39.5 C -0.5,38.1667 -0.5,36.8333 -0.5,35.5C 0.221579,35.9175 0.721579,36.5842 1,37.5C 1.33333,35.8333 1.66667,34.1667 2,32.5C 3.94349,33.807 5.77682,33.807 7.5,32.5C 9.8724,31.2769 12.3724,30.2769 15,29.5C 16.7275,26.3821 17.5608,23.0487 17.5,19.5C 19.599,17.17 19.7657,14.5034 18,11.5C 15.3483,12.5902 13.8483,14.5902 13.5,17.5C 14.8146,19.1986 14.8146,20.8653 13.5,22.5C 10.821,22.4754 9.48766,21.142 9.5,18.5C 10.3171,16.0314 10.8171,13.3647 11,10.5C 13.2513,8.62272 15.7513,7.12272 18.5,6C 19.1905,4.93257 19.6905,3.76591 20,2.5C 20.3333,2.83333 20.6667,3.16667 21,3.5C 23.9301,-0.437857 26.7635,-0.437857 29.5,3.5C 28.9598,4.7481 28.2931,5.91476 27.5,7C 29.3289,7.27346 30.8289,8.10679 32,9.5C 32.6838,8.21613 32.5171,7.04946 31.5,6C 33.1124,5.27969 34.6124,5.44636 36,6.5C 36.2028,10.7637 34.3694,13.7637 30.5,15.5C 29.5581,15.3918 28.7247,15.0585 28,14.5C 27.5983,15.8721 27.0983,17.2054 26.5,18.5C 29.4901,20.6324 32.6568,22.6324 36,24.5C 36.3333,24.1667 36.6667,23.8333 37,23.5C 36.621,25.075 36.7877,26.575 37.5,28C 35.4186,30.2134 34.0853,32.8801 33.5,36C 33.6301,37.0588 34.1301,37.8921 35,38.5C 39.7849,33.2918 40.6182,34.1251 37.5,41C 34.5184,41.498 31.5184,41.6646 28.5,41.5C 28.9143,36.9255 29.581,32.4255 30.5,28C 28.444,27.6892 26.444,27.1892 24.5,26.5C 20.9069,34.4543 14.9069,37.9543 6.5,37C 4.97823,38.5218 3.47823,40.0218 2,41.5C 0.988944,40.9444 0.155611,40.2778 -0.5,39.5 Z"/></g>
<g><path style="opacity:0.788" fill="#fefffe" d="M 76.5,6.5 C 77.8221,6.33003 78.9887,6.66337 80,7.5C 80.3333,10.8333 80.6667,14.1667 81,17.5C 83,20.1667 85,20.1667 87,17.5C 87.3333,14.1667 87.6667,10.8333 88,7.5C 89.0113,6.66337 90.1779,6.33003 91.5,6.5C 91.5,11.8333 91.5,17.1667 91.5,22.5C 87.9858,22.2361 84.3191,22.0694 80.5,22C 79.5838,21.6258 78.7504,21.1258 78,20.5C 76.6211,15.964 76.1211,11.2973 76.5,6.5 Z"/></g>
<g><path style="opacity:0.788" fill="#fefffe" d="M 93.5,6.5 C 97.0142,6.76391 100.681,6.93058 104.5,7C 105.416,7.37424 106.25,7.87424 107,8.5C 108.379,13.036 108.879,17.7027 108.5,22.5C 107.178,22.67 106.011,22.3366 105,21.5C 104.667,18.1667 104.333,14.8333 104,11.5C 102,8.83333 100,8.83333 98,11.5C 97.6667,14.8333 97.3333,18.1667 97,21.5C 95.9887,22.3366 94.8221,22.67 93.5,22.5C 93.5,17.1667 93.5,11.8333 93.5,6.5 Z"/></g>
<g><path style="opacity:0.797" fill="#fefffe" d="M 125.5,6.5 C 132.228,7.04218 138.895,7.20885 145.5,7C 146.333,7.83333 147.167,8.66667 148,9.5C 148.499,13.8206 148.666,18.1539 148.5,22.5C 147.5,22.5 146.5,22.5 145.5,22.5C 145.665,19.1501 145.498,15.8168 145,12.5C 143.857,9.08471 142.19,8.75137 140,11.5C 139.501,15.1516 139.335,18.8183 139.5,22.5C 138.167,22.5 136.833,22.5 135.5,22.5C 135.665,18.8183 135.499,15.1516 135,11.5C 133.333,8.83333 131.667,8.83333 130,11.5C 129.501,15.1516 129.335,18.8183 129.5,22.5C 128.167,22.5 126.833,22.5 125.5,22.5C 125.5,17.1667 125.5,11.8333 125.5,6.5 Z"/></g>
<g><path style="opacity:0.783" fill="#fefffe" d="M 155.5,6.5 C 159.516,5.89995 163.016,6.89995 166,9.5C 167.367,13.6996 167.867,18.0329 167.5,22.5C 163.644,22.1447 159.644,21.978 155.5,22C 151.139,19.7742 149.639,16.2742 151,11.5C 152.025,9.31305 153.525,7.64638 155.5,6.5 Z M 157.5,9.5 C 160.699,9.6964 162.699,11.3631 163.5,14.5C 160.5,21.1667 157.5,21.1667 154.5,14.5C 155.092,12.5775 156.092,10.9108 157.5,9.5 Z"/></g>
<g><path style="opacity:0.894" fill="#fefffe" d="M 169.5,6.5 C 173.336,6.87445 177.336,6.87445 181.5,6.5C 181.5,7.5 181.5,8.5 181.5,9.5C 178.728,9.21997 176.228,9.88664 174,11.5C 172.763,15.0601 172.263,18.7267 172.5,22.5C 171.5,22.5 170.5,22.5 169.5,22.5C 169.5,17.1667 169.5,11.8333 169.5,6.5 Z"/></g>
<g><path style="opacity:0.005" fill="#fefffe" d="M 9.5,18.5 C 8.62356,18.6309 7.95689,18.2975 7.5,17.5C 9.00709,13.6452 9.67375,13.9786 9.5,18.5 Z"/></g>
<g><path style="opacity:0.004" fill="#fefffe" d="M 17.5,19.5 C 16.475,19.1034 16.3083,18.4368 17,17.5C 17.4643,18.0944 17.631,18.7611 17.5,19.5 Z"/></g>
<g><path style="opacity:0.008" fill="#fefffe" d="M 28.5,19.5 C 29.2506,18.4265 30.2506,18.2599 31.5,19C 30.552,19.4828 29.552,19.6495 28.5,19.5 Z"/></g>
<g><path style="opacity:0.004" fill="#fefffe" d="M 13.5,22.5 C 14.8333,23.1667 14.8333,23.1667 13.5,22.5 Z"/></g>
<g><path style="opacity:0.004" fill="#fefffe" d="M 13.5,23.5 C 12.8333,24.1667 12.8333,24.1667 13.5,23.5 Z"/></g>
<g><path style="opacity:0.004" fill="#fefffe" d="M -0.5,24.5 C 0.833333,25.1667 0.833333,25.8333 -0.5,26.5C -0.5,25.8333 -0.5,25.1667 -0.5,24.5 Z"/></g>
<g><path style="opacity:0.008" fill="#fefffe" d="M 9.5,28.5 C 10.8333,29.1667 10.8333,29.1667 9.5,28.5 Z"/></g>
<g><path style="opacity:0.017" fill="#fefffe" d="M 9.5,29.5 C 8.83333,30.5 8.16667,31.5 7.5,32.5C 6.12656,32.6567 4.79323,32.49 3.5,32C 5.62844,31.3448 7.62844,30.5114 9.5,29.5 Z"/></g>
<g><path style="opacity:0.656" fill="#fefffe" d="M 59.5,32.5 C 61.5273,32.3379 63.5273,32.5045 65.5,33C 60.2657,33.5469 60.2657,34.3802 65.5,35.5C 69.5365,35.0444 73.5365,34.8777 77.5,35C 74.8554,36.2865 73.8554,38.4532 74.5,41.5C 69.4013,41.0611 64.4013,40.8944 59.5,41C 56.8987,38.1705 56.8987,35.3371 59.5,32.5 Z M 61.5,35.5 C 63.898,36.8823 64.0647,38.549 62,40.5C 61.1667,39.6667 60.3333,38.8333 59.5,38C 60.3805,37.2917 61.0472,36.4584 61.5,35.5 Z M 68.5,35.5 C 71.1368,37.1538 70.8034,37.6538 67.5,37C 68.056,36.6174 68.3893,36.1174 68.5,35.5 Z M 67.5,39.5 C 69.0348,38.2121 70.7015,38.2121 72.5,39.5C 70.8327,40.6664 69.166,40.6664 67.5,39.5 Z"/></g>
<g><path style="opacity:0.617" fill="#fefffe" d="M 153.5,44.5 C 152.833,44.5 152.167,44.5 151.5,44.5C 151.338,42.1756 150.172,40.5089 148,39.5C 147.692,40.3081 147.192,40.9747 146.5,41.5C 145.719,40.2713 145.219,38.938 145,37.5C 144.153,39.8543 143.32,42.1877 142.5,44.5C 141.833,44.5 141.167,44.5 140.5,44.5C 140.734,41.1848 140.734,37.8515 140.5,34.5C 141.167,35.1667 141.833,35.8333 142.5,36.5C 144.438,33.9211 146.271,33.9211 148,36.5C 149.554,34.0728 150.721,34.0728 151.5,36.5C 154.01,33.9387 156.51,33.9387 159,36.5C 159.956,35.1059 161.289,34.4393 163,34.5C 165.113,35.6016 167.28,35.6016 169.5,34.5C 172.399,34.2315 173.899,35.5648 174,38.5C 176.361,33.3038 178.361,33.6372 180,39.5C 180.494,37.8659 180.66,36.1992 180.5,34.5C 184.185,34.1046 187.852,33.9379 191.5,34C 192.435,36.3806 192.768,38.8806 192.5,41.5C 189.833,41.5 187.167,41.5 184.5,41.5C 184.649,40.448 184.483,39.448 184,38.5C 181.021,43.0216 178.687,43.0216 177,38.5C 176,39.8333 175,41.1667 174,42.5C 172.129,40.4946 170.795,38.1613 170,35.5C 168.983,37.3759 168.149,39.3759 167.5,41.5C 166.614,40.675 166.281,39.675 166.5,38.5C 160.49,38.2245 160.157,39.0579 165.5,41C 162.975,41.8959 160.808,41.3959 159,39.5C 157.599,41.1922 155.766,41.8588 153.5,41.5C 153.5,42.5 153.5,43.5 153.5,44.5 Z M 187.5,34.5 C 188.5,34.5 189.5,34.5 190.5,34.5C 189.5,42.5 188.5,42.5 187.5,34.5 Z M 162.5,35.5 C 165.137,37.1538 164.803,37.6538 161.5,37C 162.056,36.6174 162.389,36.1174 162.5,35.5 Z M 182.5,35.5 C 184.337,35.6395 184.67,36.3061 183.5,37.5C 182.702,37.0431 182.369,36.3764 182.5,35.5 Z M 151.5,36.5 C 151.798,39.3356 151.131,39.8356 149.5,38C 150.044,37.2828 150.711,36.7828 151.5,36.5 Z M 154.5,36.5 C 157.674,36.9522 158.007,37.9522 155.5,39.5C 153.481,38.8671 153.147,37.8671 154.5,36.5 Z"/></g>
<g><path style="opacity:0.588" fill="#fefffe" d="M 86.5,34.5 C 86.1159,36.6648 86.7826,38.3315 88.5,39.5C 90.2174,38.3315 90.8841,36.6648 90.5,34.5C 92.3435,36.2789 93.0102,38.6122 92.5,41.5C 87.7863,41.8266 83.1196,41.4933 78.5,40.5C 77.1667,38.8333 77.1667,37.1667 78.5,35.5C 81.0865,34.52 83.7531,34.1866 86.5,34.5 Z M 86.5,34.5 C 87.8333,34.5 89.1667,34.5 90.5,34.5C 90.8841,36.6648 90.2174,38.3315 88.5,39.5C 86.7826,38.3315 86.1159,36.6648 86.5,34.5 Z M 80.5,36.5 C 83.6741,36.9522 84.0075,37.9522 81.5,39.5C 79.4807,38.8671 79.1474,37.8671 80.5,36.5 Z"/></g>
<g><path style="opacity:0.619" fill="#fefffe" d="M 98.5,34.5 C 100.136,35.7489 101.303,37.4156 102,39.5C 101.808,36.4579 103.141,34.7912 106,34.5C 108.229,35.3689 110.562,35.3689 113,34.5C 114.658,34.6752 115.991,35.3418 117,36.5C 117.689,35.6433 118.522,34.9767 119.5,34.5C 121.672,34.6759 124.005,34.8425 126.5,35C 129.167,37 129.167,39 126.5,41C 124.005,41.1575 121.672,41.3241 119.5,41.5C 118.522,41.0233 117.689,40.3567 117,39.5C 116.692,40.3081 116.192,40.9747 115.5,41.5C 114.534,39.604 114.201,37.604 114.5,35.5C 113.5,35.5 112.5,35.5 111.5,35.5C 111.799,37.604 111.466,39.604 110.5,41.5C 109.614,40.675 109.281,39.675 109.5,38.5C 103.49,38.2245 103.157,39.0579 108.5,41C 107.667,41.1667 106.833,41.3333 106,41.5C 104.331,40.8338 102.831,40.8338 101.5,41.5C 100.201,40.91 99.3678,39.91 99,38.5C 98.3848,40.1161 97.3848,41.4495 96,42.5C 95.9335,39.6131 96.7668,36.9465 98.5,34.5 Z M 105.5,35.5 C 108.137,37.1538 107.803,37.6538 104.5,37C 105.056,36.6174 105.389,36.1174 105.5,35.5 Z M 123.5,35.5 C 125.898,36.8823 126.065,38.549 124,40.5C 122.212,38.9769 122.045,37.3102 123.5,35.5 Z M 119.5,36.5 C 120.573,37.2506 120.74,38.2506 120,39.5C 118.272,38.6477 118.105,37.6477 119.5,36.5 Z"/></g>
<g><path style="opacity:0.637" fill="#fefffe" d="M 250.5,36.5 C 250.5,37.1667 250.5,37.8333 250.5,38.5C 244.49,38.2245 244.157,39.0579 249.5,41C 246.937,41.9181 244.77,41.4181 243,39.5C 240.106,40.7797 236.939,41.4464 233.5,41.5C 230.061,41.4464 226.894,40.7797 224,39.5C 222.556,41.1554 220.722,41.822 218.5,41.5C 218.5,42.5 218.5,43.5 218.5,44.5C 217.833,44.5 217.167,44.5 216.5,44.5C 216.657,43.1266 216.49,41.7932 216,40.5C 214,41.8333 212,41.8333 210,40.5C 209.59,41.9007 209.09,43.234 208.5,44.5C 206.5,44.5 204.5,44.5 202.5,44.5C 201.875,42.2298 202.875,41.8965 205.5,43.5C 206.308,43.1924 206.975,42.6924 207.5,42C 203.892,40.3385 200.225,40.0052 196.5,41C 197.624,40.7508 198.624,40.2508 199.5,39.5C 198.167,38.5 198.167,37.5 199.5,36.5C 198.624,35.7492 197.624,35.2492 196.5,35C 199.631,35.0891 202.631,34.9224 205.5,34.5C 206.994,34.7092 208.161,35.3759 209,36.5C 209.956,35.1059 211.289,34.4393 213,34.5C 215.333,35.8333 217.667,35.8333 220,34.5C 221.711,34.4393 223.044,35.1059 224,36.5C 228.518,34.593 233.352,33.9264 238.5,34.5C 238.5,35.5 238.5,36.5 238.5,37.5C 241.561,37.4129 244.227,36.4129 246.5,34.5C 248.114,34.8029 249.448,35.4695 250.5,36.5 Z M 204.5,35.5 C 208.095,36.9051 208.262,38.5717 205,40.5C 203.212,38.9769 203.045,37.3102 204.5,35.5 Z M 212.5,35.5 C 214.898,36.8823 215.065,38.549 213,40.5C 212.167,39.6667 211.333,38.8333 210.5,38C 211.381,37.2917 212.047,36.4584 212.5,35.5 Z M 219.5,35.5 C 221.898,36.8823 222.065,38.549 220,40.5C 218.212,38.9769 218.045,37.3102 219.5,35.5 Z M 226.5,36.5 C 229.674,36.9522 230.007,37.9522 227.5,39.5C 225.481,38.8671 225.147,37.8671 226.5,36.5 Z M 238.5,38.5 C 240.337,38.6395 240.67,39.3061 239.5,40.5C 238.702,40.0431 238.369,39.3764 238.5,38.5 Z"/></g>
<g><path style="opacity:0.967" fill="#fefffe" d="M 131.5,38.5 C 132.601,37.4017 133.934,37.235 135.5,38C 134.207,38.49 132.873,38.6567 131.5,38.5 Z"/></g>
</svg>
